<svg xmlns="http://www.w3.org/2000/svg" id="Layer_2" data-name="Layer 2" viewBox="0 0 67.72 67.73"><defs><style>      .cls-1 {        fill: #749e2d;      }      .cls-1, .cls-2 {        stroke-width: 0px;      }      .cls-2 {        fill: #008eba;      }    </style></defs><g id="Testimonial_op_02" data-name="Testimonial op 02"><g><path class="cls-2" d="M44.07,25.74c-.2,5.97-2.34,10.77-6.87,14.31-1.62,1.26-2.37,2.65-2.21,4.67.13,1.69-.18,3.39.87,4.99.7,1.06.27,2.3-.56,3.25-.39.45-.58.8-.42,1.47.49,2.07-.44,3.6-2.5,4.18-.55.15-.7.34-.82.88-.66,3.02-2.78,4.83-5.54,4.84-2.77.01-4.97-1.83-5.58-4.79-.13-.62-.33-.79-.92-.95-1.94-.53-2.89-2.13-2.44-4.11.15-.64.04-1-.37-1.48-1.06-1.24-1.21-2.62-.34-3.89.49-.71.65-1.41.6-2.22-.03-.42-.05-.85,0-1.27.31-2.55-.59-4.33-2.68-6.01-6.18-4.95-8.04-13.72-4.77-20.94,3.25-7.19,11.05-11.67,18.5-10.63,8.33,1.17,14.6,7.19,15.77,15.14.14.93.21,1.86.28,2.55ZM27.11,43.62q0,3.79,3.42,3.79c.14,0,.29-.02.42,0,1.45.26,1.96-.3,1.83-1.79-.12-1.39-.17-2.81.32-4.18.56-1.56,1.86-2.42,3.05-3.41,6.34-5.31,7.47-14.71,2.6-21.33-4.99-6.78-14.16-8.51-21.21-4.02-9.26,5.91-9.89,19.01-1.17,25.77,2.01,1.55,3,3.39,2.85,5.9-.05.75.02,1.5-.01,2.25-.03.61.19.83.81.81,1.31-.03,2.63-.04,3.95,0,.64.02.93-.15.91-.86-.04-1.69.03-3.38-.03-5.07-.04-1.32-1.63-3.14-2.67-3.09-4.11.18-6.96-2.64-6.32-7.94.08-.64.46-1.01,1.1-1.08,5.54-.66,8.25,2.48,7.9,6.63-.09,1.01.32,2.16,1.2,2.2.61.02,1.16-1.2,1.06-2.19-.39-4.05,2.25-7.3,7.89-6.64.65.08,1.03.43,1.11,1.07.64,5.22-2.12,8.15-6.3,7.93-.69-.04-1.06.25-1.51.75-1.27,1.45-1.32,3.13-1.19,4.48ZM26.04,51.93c2.06,0,4.12-.01,6.18,0,.82,0,1.6-.13,1.61-1.12,0-.98-.75-1.15-1.58-1.15-4.17.01-8.34.01-12.51,0-.83,0-1.6.14-1.61,1.12-.01.98.75,1.15,1.58,1.14,2.11-.01,4.22,0,6.32,0ZM25.9,56.44c1.78,0,3.56-.01,5.34,0,.79,0,1.45-.16,1.48-1.09.03-.92-.57-1.18-1.39-1.18-3.56,0-7.13,0-10.69,0-.81,0-1.43.23-1.41,1.15.02.93.67,1.12,1.46,1.11,1.73-.01,3.47,0,5.2,0ZM26.03,58.7c-.84,0-1.69.04-2.53-.01-.96-.06-.97.36-.71,1.09.48,1.31,1.69,2.24,3.07,2.29,1.37.05,2.67-.8,3.22-2.07.36-.83.44-1.43-.81-1.31-.74.07-1.5.01-2.24.01ZM22.6,35.28c.02-2.12-1.47-3.6-3.51-3.67-.8-.03-1.04.21-1.02,1.02.07,2.04,1.55,3.5,3.6,3.52.73,0,1.07-.18.93-.87ZM33.88,32.61c.15-.72-.14-1.04-1.04-.99-2.04.1-3.49,1.59-3.48,3.64,0,.63.13.9.84.91,2.03.03,3.61-1.4,3.68-3.55Z"></path><path class="cls-1" d="M59.82,57.04c0-3,.03-6-.01-9-.02-1.26.47-1.8,1.75-1.76,1.55.05,3.09.03,4.64,0,1.07-.02,1.53.49,1.52,1.54-.01,6.14,0,12.29,0,18.43,0,.99-.46,1.47-1.45,1.47-1.59,0-3.19-.03-4.78,0-1.2.03-1.69-.49-1.67-1.69.04-3,.01-6,.01-9ZM65.46,57.02c0-2.49-.03-4.97.02-7.46.01-.8-.22-1.12-1.03-1.02-.37.05-.76.05-1.12,0-.95-.13-1.29.18-1.27,1.2.06,4.83.05,9.67,0,14.5-.01.99.25,1.39,1.25,1.23.27-.04.57-.04.84,0,1.01.15,1.39-.17,1.35-1.27-.09-2.39-.03-4.79-.03-7.18Z"></path><path class="cls-1" d="M63.16,33.88c1.03,0,2.07-.03,3.1,0,1.21.04,1.65.6,1.3,1.72-.66,2.1-1.35,4.2-2.1,6.27-.45,1.25-1.36,1.34-2.21.33-.58-.7-.77-2.01-1.72-2.02-.76,0-1.53.81-2.29,1.28-5.73,3.6-12.06,5.6-18.64,6.88-.36.07-1.04.58-1.05-.29,0-.66-.58-1.63.69-1.92,2.1-.48,4.19-1.02,6.29-1.55,4.79-1.21,9.08-3.51,13.25-6.08.6-.37.63-.69.22-1.2-.37-.48-.71-.99-1.01-1.52-.6-1.06-.18-1.83,1.06-1.89,1.03-.05,2.07-.01,3.1-.01ZM63.96,39.15c.44-1.11.8-1.96.92-2.9h-2.87c.67,1,1.23,1.84,1.94,2.9Z"></path><path class="cls-1" d="M49.67,59.68c0-2.02.03-4.03-.01-6.05-.02-1.17.42-1.74,1.65-1.71,1.55.04,3.09.04,4.64,0,1.12-.03,1.63.44,1.63,1.58-.02,4.22-.02,8.44,0,12.65,0,1.04-.43,1.57-1.5,1.56-1.64-.02-3.28-.01-4.92,0-1.08,0-1.5-.54-1.49-1.58.02-2.16,0-4.31,0-6.47ZM55.31,59.82c0-1.55-.04-3.1.02-4.64.03-.82-.26-1.1-1.04-1-.37.04-.76.05-1.12,0-.97-.14-1.29.21-1.26,1.22.07,2.58.02,5.16.02,7.74,0,2.41,0,2.37,2.36,2.35.78,0,1.07-.2,1.04-1.02-.06-1.55-.02-3.09-.02-4.64Z"></path><path class="cls-1" d="M39.52,62.14c0-1.36.03-2.72,0-4.07-.03-1.11.43-1.65,1.57-1.63,1.59.03,3.18.03,4.78,0,1.05-.02,1.56.44,1.55,1.51-.01,2.76-.01,5.53,0,8.29,0,1.08-.54,1.51-1.57,1.49-1.59-.02-3.19-.03-4.78,0-1.15.02-1.59-.54-1.56-1.65.04-1.31,0-2.62,0-3.93ZM45.16,62.2v-1.12c0-2.5,0-2.46-2.45-2.4-.74.02-.98.23-.95.96.05,1.45.12,2.91-.02,4.35-.13,1.32.39,1.56,1.57,1.5,1.84-.09,1.85-.02,1.85-1.88,0-.47,0-.94,0-1.41Z"></path><path class="cls-2" d="M27.11,2.93c0,.47-.02.94,0,1.41.04.79.1,1.38-1.09,1.4-1.26.02-1.2-.61-1.18-1.46.03-.98.06-1.97,0-2.95-.06-.89.09-1.32,1.17-1.33,1.17-.01,1.15.58,1.11,1.38-.03.51,0,1.03,0,1.55Z"></path><path class="cls-2" d="M12,9.96c-.28.61-.77.99-1.23,1.36-.44.36-.65-.17-.89-.4-.91-.88-1.76-1.83-2.71-2.67-.72-.64-.32-.98.16-1.44.45-.44.79-.93,1.44-.19.87.98,1.85,1.87,2.78,2.8.16.16.3.35.45.53Z"></path><path class="cls-2" d="M2.84,24.86c-.47,0-.95-.06-1.4.01-1.24.21-1.52-.37-1.42-1.48.06-.61.23-.81.83-.79,1.36.03,2.72.05,4.07,0,.95-.03.76.6.75,1.13,0,.51.23,1.2-.73,1.14-.7-.04-1.4,0-2.11,0Z"></path><path class="cls-2" d="M49.22,22.6c.47,0,.95.06,1.4-.01,1.22-.21,1.38.44,1.32,1.43-.04.56-.12.86-.78.84-1.36-.04-2.72-.06-4.07,0-1.06.05-.77-.67-.81-1.22-.04-.6-.05-1.14.83-1.06.7.06,1.4.01,2.11.01Z"></path><path class="cls-2" d="M40.94,11.68c-.39-.49-.79-.95-1.14-1.44-.33-.48.19-.65.41-.88.84-.88,1.77-1.69,2.57-2.61.62-.71,1-.51,1.57.05.58.57.75.95.05,1.56-.92.8-1.74,1.71-2.61,2.57-.2.2-.42.37-.85.75Z"></path><path class="cls-1" d="M28.43,16.89c-.88.18-1.3,0-1.62-.6-.24-.45-.74-.57-1.23-.34-.46.21-.75.59-.69,1.12.05.52.39.85.88.98.27.07.56.05.83.11,1.41.32,2.34,1.19,2.67,2.59.34,1.42-.18,2.59-1.34,3.45-.46.34-.92.57-.84,1.28.08.71-.54.53-.9.49-.45-.05-1.28.34-1.27-.36.01-.93-.6-1.16-1.11-1.59-.28-.24-.56-.53-.72-.85-.24-.5-.85-1.25-.23-1.56.55-.28,1.53-.54,2.11.34.34.52.79.82,1.42.55.47-.2.76-.59.68-1.11-.11-.71-.6-.98-1.29-1.05-1.62-.17-2.71-1.06-3.09-2.63-.36-1.54.26-2.74,1.56-3.61.22-.15.6-.21.56-.55-.17-1.5.92-1,1.65-1.07.14-.01.4.03.4.05.07,1.7,2.15,2.06,2.41,3.66.2,1.22-.67.65-.86.72Z"></path></g></g></svg>